<?xml version="1.0" encoding="UTF-8"?>
<svg width="75px" height="18px" viewBox="0 0 75 18" version="1.1" xmlns="http://www.w3.org/2000/svg" xmlns:xlink="http://www.w3.org/1999/xlink">
    <g stroke="none" stroke-width="1" fill="none" fill-rule="evenodd">
        <g transform="translate(-9.000000, -7.000000)" fill-rule="nonzero">
            <path d="M40,9 L42.331797,9 L43.6879032,15.6425976 L45.1104552,9 L47.3758065,9 L47.3758065,21.8808632 L46.0607402,21.8808632 L46.0607402,10.2707578 L44.3482282,17.5487343 L42.9393562,17.5487343 L41.2578895,10.2707578 L41.2578895,21.8808632 L40,21.8808632 L40,9 Z M49.4757694,12.69675 L51.0337142,12.69675 L53.1875123,20.3869368 L55.0370483,12.69675 L56.5268666,12.69675 C54.8597529,19.0614008 53.9006563,22.7034985 53.6495771,23.623043 C53.3984978,24.5425876 52.7370532,25.0015719 51.6652433,24.999996 L50.7492373,24.999996 L50.7492373,23.623043 C50.8504255,23.623043 51.1557608,23.623043 51.6652433,23.623043 C52.1747258,23.623043 52.496232,23.0423164 52.629762,21.8808632 L52.3016654,21.8808632 L49.4757694,12.69675 Z M59.9547012,10.5018047 L61.384121,10.5018047 L61.384121,12.69675 L63.8999,12.69675 L63.8999,14.0252695 L61.384121,14.0252695 C61.384121,17.2406732 61.384121,19.127556 61.384121,19.6859179 C61.384121,20.2442798 61.6509461,20.5138345 62.1845962,20.4945819 L63.8999,20.4945819 L63.8999,21.8808632 C63.597265,21.8808632 62.8937969,21.8808632 61.7894956,21.8808632 C60.6851943,21.8808632 60.0735962,21.207597 59.9547012,19.8610645 L59.9547012,14.0252695 L58.353751,14.0252695 L58.353751,12.69675 L59.9547012,12.69675 L59.9547012,10.5018047 Z M66.3013254,9 L67.7307452,9 C67.7297029,11.0130109 67.7297029,12.4233595 67.7307452,13.2310459 C67.7307452,12.9817604 68.0737873,12.8036618 68.7598716,12.69675 C69.1982643,12.69675 69.636657,12.69675 70.0750496,12.69675 C71.4982902,12.69675 72.3178056,13.4861413 72.5335959,15.064924 L72.5335959,21.8808632 L71.1041761,21.8808632 C71.1041761,18.184038 71.1041761,15.9505661 71.1041761,15.1804474 C71.1041761,14.4103288 70.7230161,14.0252695 69.960696,14.0252695 C69.9987022,14.0252695 69.6365453,14.0252695 68.8742252,14.0252695 C68.1119052,14.0252695 67.7307452,14.4103288 67.7307452,15.1804474 L67.7307452,21.8808632 L66.3013254,21.8808632 L66.3013254,9 Z M74.5478495,9.05776172 L76.3339543,9.05776172 L79.1743121,14.1191887 L82.087425,9.05776172 L83.7773232,9.05776172 L80.0156596,15.3065192 L84,21.8808632 L82.1600128,21.8808632 L79.1545459,16.5412323 L76.0206545,21.8808632 L74.3486241,21.8808632 L78.2777978,15.3065192 L74.5478495,9.05776172 Z" id="Word" fill="#4F4F4F"></path>
            <path d="M27,19 L31,19 L31,23 L27,23 L27,19 Z M19,19 L23,19 L23,23 L19,23 L19,19 Z M12,19 L16,19 L16,23 L12,23 L12,19 Z M16,15 L20,15 L20,19 L16,19 L16,15 Z M16,11 L20,11 L20,15 L16,15 L16,11.0003028 L16,11 Z M12,11 L16,11 L16,15 L12,15 L12,11.0003028 L12,11 Z M12,7 L16,7 L16,11 L12.0003028,11 L12.0003028,7 L12,7 Z M9,7 L13,7 L13,11 L9,11 L9,7 Z M30,7 L34,7 L34,11 L30,11 L30,7 Z M27,7 L31,7 L31,11 L27,11 L27,7 Z M23,15 L27,15 L27,19 L23.0003028,19 L23.0003028,15.0003028 L23,15 Z M23,11 L27,11 L27,15 L23.0003028,15 L23.0003028,11 L23,11 Z M27,11 L31,11 L31,15 L27,15 L27,11 Z" id="Symbol" fill="#3588C9"></path>
        </g>
    </g>
</svg>
